PathFileType	4	(X/Y/Z)	 s06c0202.trc
DataRate	CameraRate	NumFrames	NumMarkers	Units	OrigDataRate	OrigDataStartFrame	OrigNumFrames
200	200	4	48	mm	200	1501	2000
Frame#	Time	racr			lacr			c7			jug			rlel			rdr			llel			ldr			s2			lic			ric			lasi			rasi			rpsi			lpsi			rgt			lgt			rth1			rth2			rth3			rth4			rlfc			rmfc			rsh1			rsh2			rsh3			rsh4			rlmal			rcal			rtoe			rmt5			lth1			lth2			lth4			lth3			llfc			lmfc			llmal			lcal			lmt5			lsh1			lsh2			lsh3			lsh4			ltoe			SBIKE			LBIKE			RBIKE			
		X1	Y1	Z1	X2	Y2	Z2	X3	Y3	Z3	X4	Y4	Z4	X5	Y5	Z5	X6	Y6	Z6	X7	Y7	Z7	X8	Y8	Z8	X9	Y9	Z9	X10	Y10	Z10	X11	Y11	Z11	X12	Y12	Z12	X13	Y13	Z13	X14	Y14	Z14	X15	Y15	Z15	X16	Y16	Z16	X17	Y17	Z17	X18	Y18	Z18	X19	Y19	Z19	X20	Y20	Z20	X21	Y21	Z21	X22	Y22	Z22	X23	Y23	Z23	X24	Y24	Z24	X25	Y25	Z25	X26	Y26	Z26	X27	Y27	Z27	X28	Y28	Z28	X29	Y29	Z29	X30	Y30	Z30	X31	Y31	Z31	X32	Y32	Z32	X33	Y33	Z33	X34	Y34	Z34	X35	Y35	Z35	X36	Y36	Z36	X37	Y37	Z37	X38	Y38	Z38	X39	Y39	Z39	X40	Y40	Z40	X41	Y41	Z41	X42	Y42	Z42	X43	Y43	Z43	X44	Y44	Z44	X45	Y45	Z45	X46	Y46	Z46	X47	Y47	Z47	X48	Y48	Z48	
1501	7.5050	525.939977	1213.613513	-52.938948	561.602004	1198.470612	-366.374831	543.166220	1312.656238	-209.893895	520.151507	1147.854904	-206.176900	462.524126	979.252863	74.286911	648.232810	922.072745	-44.724570	466.778821	981.590856	-498.512719	651.610408	915.516055	-395.504602	-8.881675	1142.508554	-242.798486	154.381768	1090.072747	-392.086203	120.870110	1112.620370	-64.600458	161.622185	1042.187778	-353.264625	150.069213	1070.139144	-95.492852	21.251586	1178.211134	-208.378364	27.437414	1173.106952	-267.760876	95.462239	1047.274575	-28.381460	116.183273	1023.324029	-425.803498	191.773249	949.868727	-13.236644	267.266878	900.003041	-17.420899	306.690470	822.218721	-21.379659	291.096539	923.885334	-35.456510	353.265865	724.550173	-39.766118	352.636040	700.529796	-147.495794	323.744866	601.533267	-15.680444	325.563715	515.786955	-37.055008	286.855318	438.395397	-41.920118	347.650309	516.064939	-70.207910	259.722209	357.881435	-48.479582	197.142108	324.405514	-96.548701	474.038575	318.527895	-96.782786	378.287744	291.247721	-27.374354	170.993573	920.891897	-443.158273	247.211995	878.584858	-442.134579	272.570047	903.902373	-431.117043	292.882746	801.754419	-441.215545	328.925174	698.551757	-412.086329	331.575311	688.418248	-296.055437	34.411408	484.971618	-371.554744	-38.079243	510.183126	-321.370587	78.505770	354.671543	-399.748458	251.174826	622.750080	-423.515033	195.970362	562.572820	-393.233855	113.432929	530.639847	-386.031581	213.428506	548.536126	-359.363501	149.060726	300.999108	-343.540807	-202.979822	867.869419	-207.479870	-49.346585	83.756104	-414.531123	-49.175709	79.966941	-17.017415	
1502	7.5100	526.119489	1214.808797	-53.757594	561.318109	1200.164773	-367.409688	542.640617	1313.660982	-210.593353	520.216284	1149.334939	-207.223374	462.798160	980.481475	73.774378	648.864411	922.319183	-44.531235	467.304567	982.879716	-500.200006	651.723120	915.970934	-396.518368	-8.606663	1142.783912	-241.687734	153.781069	1091.477976	-392.253868	121.385044	1112.661646	-64.152247	161.558881	1043.765666	-352.824213	151.078865	1070.691156	-95.266592	21.623135	1178.287377	-207.352225	27.307991	1173.647119	-266.372900	95.157839	1045.299593	-28.593946	117.135452	1025.807195	-425.431147	189.015581	944.679486	-12.064323	263.453823	892.008679	-16.456735	300.172038	813.267821	-21.323442	288.099472	915.872303	-33.664322	345.743047	715.070761	-39.350566	344.184374	690.763113	-147.005462	317.465104	591.894147	-15.608940	320.693796	506.179920	-36.527210	282.986141	428.238719	-41.383063	342.572470	506.868781	-69.879106	257.089178	347.093409	-48.056542	194.532730	313.646170	-95.994143	471.036374	306.864599	-98.094426	375.847341	280.625388	-27.313592	172.921670	925.368895	-443.002095	250.082070	884.985566	-441.996654	274.825590	910.526229	-429.929201	297.454960	809.198474	-442.442540	334.750205	706.021337	-413.273744	337.208880	695.661319	-297.276672	38.280386	495.518877	-371.824991	-34.167172	521.405108	-321.347446	81.283338	364.963290	-399.768371	256.359911	630.970493	-424.422953	200.660115	571.273164	-394.136298	117.679817	540.270345	-386.466717	218.435912	557.697825	-361.085897	151.524490	310.824459	-343.487391	-202.970440	867.867179	-207.441739	-49.320555	83.763200	-414.533688	-49.162397	79.952451	-17.026277	
1503	7.5150	526.366548	1216.135349	-54.617157	561.091674	1201.790570	-368.378067	542.241546	1314.670510	-211.476678	520.183331	1150.842974	-208.321336	463.042667	982.095773	73.415324	649.382787	922.522348	-44.520350	467.820368	983.938153	-501.839981	651.873816	916.697236	-397.714398	-8.211937	1143.057980	-240.629994	153.156186	1093.040137	-392.468772	122.106491	1112.805800	-63.460873	161.510026	1045.363990	-352.158218	152.274590	1071.357202	-94.814371	22.012872	1178.485659	-206.107645	27.411796	1174.067809	-265.374839	94.930862	1043.305433	-28.676176	118.002620	1028.354413	-424.950288	185.882759	939.296481	-11.023992	259.464800	884.131875	-16.295816	292.876244	803.764373	-21.757100	284.006498	906.203779	-32.659255	337.737984	705.495995	-39.028700	334.824935	681.322960	-147.013667	311.453857	582.187484	-14.941533	315.369816	496.584018	-36.105110	278.601829	418.194547	-40.865200	336.647542	497.509154	-69.558422	253.775600	336.542888	-47.630049	191.956304	302.473743	-96.076188	467.906159	296.175484	-98.530036	372.821827	270.160800	-27.312855	174.804021	930.236271	-442.453124	252.911627	891.553051	-441.746259	276.924185	917.386838	-428.739051	302.104023	816.916600	-443.380579	340.589208	713.743772	-414.471721	340.143871	703.135828	-299.851962	42.517018	505.924205	-372.004672	-29.777680	532.272407	-321.613531	84.581382	375.066044	-399.521205	261.770394	639.201410	-425.241027	205.386670	580.006684	-394.496349	122.224468	549.911099	-387.011243	222.663680	565.739563	-360.686970	154.565470	320.659022	-343.396979	-202.962335	867.874173	-207.384410	-49.315070	83.773027	-414.533511	-49.169194	79.980121	-17.010314	
1504	7.5200	526.595840	1217.458723	-55.615294	560.835614	1203.456804	-369.478338	541.957539	1315.690915	-212.458811	520.216638	1152.162408	-209.536286	463.597737	983.689440	72.813529	649.769941	922.636743	-44.735004	468.349254	985.012254	-503.668986	651.971006	917.554213	-398.855787	-7.827827	1143.178089	-239.241353	152.340406	1094.519008	-392.567930	123.008643	1112.996793	-62.768743	161.533008	1047.124096	-351.448561	153.661309	1072.043508	-94.299824	22.535462	1178.395667	-204.874263	27.390262	1174.624711	-264.418915	94.748398	1041.101246	-28.649468	118.760209	1031.109202	-424.300154	183.300552	933.693740	-10.703846	254.488778	876.458543	-15.607555	285.627698	795.248167	-22.307661	281.967252	899.589734	-29.775944	328.969242	695.864421	-38.925277	325.768742	671.581128	-146.395713	305.249503	572.380586	-14.584657	309.544898	487.037523	-35.919219	273.736062	408.139283	-40.431505	330.595669	488.166115	-69.507914	250.020128	326.337673	-47.184267	188.127443	292.368949	-95.303981	464.048339	285.855178	-98.817150	369.213683	259.907141	-27.283546	176.624780	935.273907	-441.513251	255.664421	898.405408	-441.371305	279.035158	924.459751	-427.511431	306.510069	824.854573	-444.096891	346.490773	721.858482	-415.485370	346.249236	711.108620	-300.763022	47.055979	516.217134	-372.245464	-25.108668	543.125841	-322.245785	88.813623	385.114639	-399.464511	267.344005	647.556105	-426.026535	210.598135	589.003371	-395.235279	127.141564	559.363804	-387.415481	227.767505	574.481033	-361.337176	158.352448	330.388341	-343.446883	-202.937248	867.884786	-207.303972	-49.319160	83.768203	-414.534833	-49.160899	79.960239	-17.018566	
